<svg width="20" height="20" viewBox="0 0 20 20" fill="none" xmlns="http://www.w3.org/2000/svg">
<path fill-rule="evenodd" clip-rule="evenodd" d="M11.6666 10.8327C14.4249 10.8327 16.6666 13.0743 16.6666 15.8327C16.6666 16.7493 15.9249 17.4993 14.9999 17.4993H4.99992C4.07492 17.4993 3.33325 16.7493 3.33325 15.8327C3.33325 13.0743 5.57492 10.8327 8.33325 10.8327H11.6666ZM8.33325 12.4993C6.49159 12.4993 4.99992 13.991 4.99992 15.8327H14.9999C14.9999 13.991 13.4999 12.4993 11.6666 12.4993H8.33325Z" fill="#08287F"/>
<path fill-rule="evenodd" clip-rule="evenodd" d="M9.99992 1.66602C12.2999 1.66602 14.1666 3.53268 14.1666 5.83268C14.1666 8.13268 12.2999 9.99935 9.99992 9.99935C7.69992 9.99935 5.83325 8.13268 5.83325 5.83268C5.83325 3.53268 7.69992 1.66602 9.99992 1.66602ZM9.99992 3.33268C8.62492 3.33268 7.49992 4.45768 7.49992 5.83268C7.49992 7.20768 8.62492 8.33268 9.99992 8.33268C11.3749 8.33268 12.4999 7.20768 12.4999 5.83268C12.4999 4.45768 11.3749 3.33268 9.99992 3.33268Z" fill="#08287F"/>
</svg>
