<svg width="16" height="16" viewBox="0 0 16 16" fill="none" xmlns="http://www.w3.org/2000/svg">
<path d="M12.6667 9.33268C13.0334 9.33268 13.3334 9.63268 13.3334 9.99935V10.8197C13.3332 12.2061 12.2068 13.3325 10.8204 13.3327H5.17977C3.79335 13.3325 2.66692 12.2061 2.66675 10.8197V9.99935C2.66675 9.63268 2.96675 9.33268 3.33341 9.33268C3.70008 9.33268 4.00008 9.63268 4.00008 9.99935V10.8197C4.00025 11.4727 4.52668 11.9992 5.17977 11.9993H10.8204C11.4735 11.9992 11.9999 11.4727 12.0001 10.8197V9.99935C12.0001 9.63268 12.3001 9.33268 12.6667 9.33268Z" fill="white"/>
<path d="M8.00008 2.66602C8.36675 2.66602 8.66675 2.96602 8.66675 3.33268V8.09961L9.8868 6.87956C10.1468 6.61956 10.5669 6.61956 10.8269 6.87956C11.0867 7.13957 11.0868 7.55972 10.8269 7.81966L8.00008 10.6458L5.17326 7.81966C4.91332 7.55973 4.91345 7.13957 5.17326 6.87956C5.43326 6.61956 5.85336 6.61956 6.11336 6.87956L7.33342 8.09961V3.33268C7.33342 2.96602 7.63342 2.66603 8.00008 2.66602Z" fill="white"/>
</svg>
