<svg width="16" height="16" viewBox="0 0 16 16" fill="none" xmlns="http://www.w3.org/2000/svg">
<path d="M12.666 9.33366C13.0327 9.33366 13.3327 9.63366 13.3327 10.0003V10.8206C13.3325 12.2071 12.2061 13.3335 10.8197 13.3337H5.17904C3.79262 13.3335 2.66619 12.2071 2.66602 10.8206V10.0003C2.66602 9.63366 2.96602 9.33366 3.33268 9.33366C3.69935 9.33366 3.99935 9.63366 3.99935 10.0003V10.8206C3.99952 11.4737 4.52595 12.0002 5.17904 12.0003H10.8197C11.4727 12.0002 11.9992 11.4737 11.9993 10.8206V10.0003C11.9993 9.63366 12.2993 9.33366 12.666 9.33366Z" fill="#08287F"/>
<path d="M7.99935 2.66699C8.36602 2.66699 8.66602 2.96699 8.66602 3.33366V8.10059L9.88607 6.88053C10.1461 6.62053 10.5662 6.62053 10.8262 6.88053C11.086 7.14055 11.0861 7.5607 10.8262 7.82064L7.99935 10.6468L5.17253 7.82064C4.91259 7.5607 4.91272 7.14055 5.17253 6.88053C5.43253 6.62053 5.85263 6.62053 6.11263 6.88053L7.33268 8.10059V3.33366C7.33268 2.967 7.63269 2.667 7.99935 2.66699Z" fill="#08287F"/>
</svg>
