<svg width="26" height="26" viewBox="0 0 26 26" fill="none" xmlns="http://www.w3.org/2000/svg">
<path d="M0.5 8.5C0.5 4.08172 4.08172 0.5 8.5 0.5H17.5C21.9183 0.5 25.5 4.08172 25.5 8.5V17.5C25.5 21.9183 21.9183 25.5 17.5 25.5H8.5C4.08172 25.5 0.5 21.9183 0.5 17.5V8.5Z" fill="white"/>
<path d="M0.5 8.5C0.5 4.08172 4.08172 0.5 8.5 0.5H17.5C21.9183 0.5 25.5 4.08172 25.5 8.5V17.5C25.5 21.9183 21.9183 25.5 17.5 25.5H8.5C4.08172 25.5 0.5 21.9183 0.5 17.5V8.5Z" stroke="#08287F"/>
<path d="M18.5 8.86622L17.8133 8.17956L17.1267 7.49289C16.94 7.30622 16.6933 7.21289 16.4467 7.21289C16.2 7.21289 15.9533 7.30622 15.7667 7.49289L13.7133 9.54622L7.28 15.9796C7.1 16.1596 7 16.4062 7 16.6662V18.9996H9.33333C9.58667 18.9996 9.83333 18.8996 10.0133 18.7196L16.4467 12.2862L18.5 10.2329C18.88 9.85289 18.88 9.24622 18.5 8.86622ZM9.17333 17.6462H8.35333V16.8262L14.6733 10.5062L15.4933 11.3262L9.17333 17.6462Z" fill="#08287F"/>
</svg>
