<svg width="16" height="18" viewBox="0 0 16 18" fill="none" xmlns="http://www.w3.org/2000/svg">
<path d="M15.4 5.05L9.2 0.4C8.84 0.13 8.42 0 8 0C7.58 0 7.15 0.13 6.8 0.4L0.6 5.05C0.22 5.33 0 5.78 0 6.25V15.5C0 16.6 0.89 17.5 2 17.5H14C15.11 17.5 16 16.6 16 15.5V6.25C16 5.78 15.78 5.33 15.4 5.05ZM9.6 15.5H6.4V11C6.4 10.95 6.44 10.9 6.5 10.9H9.5C9.56 10.9 9.6 10.95 9.6 11V15.5ZM14 11.5V15.5H11V11C11 10.17 10.33 9.5 9.5 9.5H6.5C5.67 9.5 5 10.17 5 11V15.5H2V11.5V6.5L8 2L14 6.5V11.5Z" fill="white"/>
</svg>
