<svg width="16" height="16" viewBox="0 0 16 16" fill="none" xmlns="http://www.w3.org/2000/svg">
<path d="M13.3333 11.334C13.7 11.334 14 11.634 14 12.0007C14 12.3673 13.7 12.6673 13.3333 12.6673H2.66667C2.3 12.6673 2 12.3673 2 12.0007C2 11.634 2.3 11.334 2.66667 11.334H13.3333Z" fill="white"/>
<path d="M13.3333 7.33398C13.7 7.33398 14 7.63398 14 8.00065C14 8.36732 13.7 8.66732 13.3333 8.66732H2.66667C2.3 8.66732 2 8.36732 2 8.00065C2 7.63398 2.3 7.33398 2.66667 7.33398H13.3333Z" fill="white"/>
<path d="M13.3333 3.33398C13.7 3.33398 14 3.63398 14 4.00065C14 4.36732 13.7 4.66732 13.3333 4.66732H2.66667C2.3 4.66732 2 4.36732 2 4.00065C2 3.63398 2.3 3.33398 2.66667 3.33398H13.3333Z" fill="white"/>
</svg>
