<svg width="14" height="17" viewBox="0 0 14 17" fill="none" xmlns="http://www.w3.org/2000/svg">
<path d="M8.33333 15C8.33333 15.9167 7.58333 16.6667 6.66667 16.6667C5.75 16.6667 5 15.9167 5 15H8.33333Z" fill="white"/>
<path fill-rule="evenodd" clip-rule="evenodd" d="M6.66667 0C7.35833 0 7.91667 0.558333 7.91667 1.25V1.8335C10.075 2.38351 11.6667 4.34168 11.6667 6.66667V12.5H12.5C12.9583 12.5 13.3333 12.875 13.3333 13.3333C13.3333 13.7917 12.9583 14.1667 12.5 14.1667H0.833333C0.375 14.1667 0 13.7917 0 13.3333C0 12.875 0.375 12.5 0.833333 12.5H1.66667V6.66667C1.66667 4.34168 3.25835 2.39184 5.41667 1.8335V1.25C5.41667 0.558333 5.975 0 6.66667 0ZM6.66667 3.33333C4.825 3.33333 3.33333 4.825 3.33333 6.66667V12.5H10V6.66667C10 4.825 8.50833 3.33333 6.66667 3.33333Z" fill="white"/>
</svg>
