<svg width="17" height="17" viewBox="0 0 17 17" fill="none" xmlns="http://www.w3.org/2000/svg">
<path d="M8.22958 11.4746C8.78734 11.4748 9.25334 11.9418 9.25334 12.5C9.25334 13.0582 8.78734 13.5252 8.22958 13.5254C7.67165 13.5254 7.205 13.0583 7.205 12.5C7.205 11.9417 7.67165 11.4746 8.22958 11.4746Z" fill="white"/>
<path d="M8.49569 3.15023C9.36171 3.15023 10.3107 3.35859 10.9436 3.98356C11.4182 4.45016 11.6768 5.08315 11.6768 5.74137C11.6768 6.79971 11.0519 7.32477 10.3691 7.89144C9.3948 8.68308 9.12858 8.86678 9.1036 9.68343V9.74202L9.08651 9.73307C9.08651 10.3331 8.77874 10.5664 8.21249 10.5664C7.64627 10.5664 7.37997 10.2997 7.37997 9.73307V9.59961C7.38007 8.29167 7.92951 7.79176 9.07837 6.96696C9.46972 6.68365 9.86118 6.27507 9.86125 5.75846C9.86125 4.91681 9.09526 4.69971 8.38745 4.69971C6.93865 4.69971 6.897 5.58319 6.80542 6.11654C6.72217 6.56643 6.30579 6.69183 5.90617 6.69189C5.41489 6.69189 5.01511 6.47503 5.01506 5.93343C5.01506 5.33343 5.30664 4.69173 5.6897 4.2334C6.36422 3.41682 7.47148 3.15023 8.49569 3.15023Z" fill="white"/>
<path fill-rule="evenodd" clip-rule="evenodd" d="M8.34595 0C12.5679 3.12672e-05 16.1901 3.20022 16.6231 7.49186C17.0893 12.0668 13.7501 16.1585 9.17847 16.6252C8.88707 16.6502 8.6038 16.6667 8.32072 16.6667C4.09886 16.6666 0.476552 13.4664 0.0435396 9.1748C-0.422673 4.59988 2.90845 0.508164 7.48006 0.0415039C7.77144 0.0165148 8.05476 0 8.33781 0H8.34595ZM8.33781 1.45833C8.10467 1.45833 7.86295 1.4667 7.6298 1.4917C5.80613 1.67503 4.15758 2.55857 3.00008 3.98356C1.84259 5.40856 1.30972 7.20006 1.49292 9.02506C1.85104 12.55 4.79007 15.2082 8.32072 15.2083C8.55389 15.2083 8.79556 15.2 9.02873 15.175C10.8524 14.9916 12.501 14.1081 13.6584 12.6831C14.8159 11.2581 15.3488 9.4666 15.1656 7.6416C14.8075 4.11673 11.8684 1.45846 8.33781 1.45833Z" fill="white"/>
</svg>
