<svg width="14" height="14" viewBox="0 0 14 14" fill="none" xmlns="http://www.w3.org/2000/svg">
<path d="M4.26923 9.77819C4.18481 10.0568 4.50675 10.2803 4.73825 10.1038L6.66667 8.63333L8.59509 10.1038C8.82658 10.2803 9.14852 10.0568 9.0641 9.77819L8.33333 7.36667L10.236 6.01099C10.4739 5.84153 10.354 5.46667 10.062 5.46667H7.73333L6.9534 2.93188C6.86652 2.64952 6.46681 2.64952 6.37993 2.93188L5.6 5.46667H3.27138C2.97935 5.46667 2.85946 5.84153 3.0973 6.01099L5 7.36667L4.26923 9.77819ZM6.66667 13.3333C5.74444 13.3333 4.87778 13.1583 4.06667 12.8083C3.25556 12.4583 2.55 11.9833 1.95 11.3833C1.35 10.7833 0.875 10.0778 0.525 9.26667C0.175 8.45555 0 7.58889 0 6.66667C0 5.74444 0.175 4.87778 0.525 4.06667C0.875 3.25556 1.35 2.55 1.95 1.95C2.55 1.35 3.25556 0.875 4.06667 0.525C4.87778 0.175 5.74444 0 6.66667 0C7.58889 0 8.45555 0.175 9.26667 0.525C10.0778 0.875 10.7833 1.35 11.3833 1.95C11.9833 2.55 12.4583 3.25556 12.8083 4.06667C13.1583 4.87778 13.3333 5.74444 13.3333 6.66667C13.3333 7.58889 13.1583 8.45555 12.8083 9.26667C12.4583 10.0778 11.9833 10.7833 11.3833 11.3833C10.7833 11.9833 10.0778 12.4583 9.26667 12.8083C8.45555 13.1583 7.58889 13.3333 6.66667 13.3333Z" fill="white"/>
</svg>
